<svg xmlns="http://www.w3.org/2000/svg" width="20" height="20" viewBox="0 0 20 20">
    <path fill="#ffffff" fill-rule="evenodd" d="M12.5 0h-10C1.12 0 0 1.053 0 2.353v15.294C0 18.947 1.12 20 2.5 20h15c1.38 0 2.5-1.053 2.5-2.353V7.06L12.5 0zM3.125 8.162h5c.345 0 .625.263.625.588 0 .325-.28.588-.625.588h-5c-.345 0-.625-.263-.625-.588 0-.325.28-.588.625-.588zm11.25 8.235H3.125c-.345 0-.625-.263-.625-.588 0-.325.28-.588.625-.588h11.25c.345 0 .625.263.625.588 0 .325-.28.588-.625.588zm0-3.603H3.125c-.345 0-.625-.263-.625-.588 0-.325.28-.588.625-.588h11.25c.345 0 .625.263.625.588 0 .325-.28.588-.625.588zM12.5 7.06V1.176l6.35 5.883H12.5z"/>
</svg>
