<svg xmlns="http://www.w3.org/2000/svg" width="24" height="24" viewBox="0 0 24 24">
    <path fill="#ACABAC" fill-rule="evenodd" d="M19.767 18.563l.002.002-2.7 3.125-.002-.003A.88.88 0 0 1 16.4 22a.88.88 0 0 1-.667-.313l-.002.003-2.7-3.125.002-.003a.951.951 0 0 1-.233-.625c0-.517.403-.937.9-.937.266 0 .502.122.667.313l.002-.003 1.131 1.31V2.936c0-.517.403-.937.9-.937s.9.42.9.938v15.681l1.131-1.309.002.003A.881.881 0 0 1 19.1 17c.497 0 .9.42.9.938 0 .241-.09.458-.233.625M11.3 7a.88.88 0 0 1-.667-.313l-.002.003L9.5 5.38v15.683c0 .517-.403.937-.9.937s-.9-.42-.9-.938V5.382L6.569 6.69l-.002-.003A.88.88 0 0 1 5.9 7c-.497 0-.9-.42-.9-.938 0-.24.09-.458.233-.625l-.002-.002 2.7-3.125.002.003A.88.88 0 0 1 8.6 2a.88.88 0 0 1 .667.313l.002-.003 2.7 3.125-.002.003a.954.954 0 0 1 .233.625c0 .517-.403.937-.9.937"/>
</svg>
