<svg xmlns="http://www.w3.org/2000/svg" width="10" height="10" viewBox="0 0 24 24">
    <path fill="grey" fill-rule="evenodd" d="M7.222 4.34h14.02a1.802 1.802 0 1 1 0 3.605H7.222v1.828a.5.5 0 0 1-.754.431l-6.16-3.63a.5.5 0 0 1 0-.862l6.16-3.63a.5.5 0 0 1 .754.43v1.829zm9.556 15.32H2.867c-1.056 0-1.911-.808-1.911-1.803 0-.995.855-1.802 1.911-1.802h13.911v-1.89c0-.25.214-.451.478-.451a.5.5 0 0 1 .253.068l6.266 3.693a.436.436 0 0 1 0 .764l-6.266 3.692a.495.495 0 0 1-.658-.143.432.432 0 0 1-.073-.239v-1.89z"/>
</svg>
