<?xml version="1.0" encoding="utf-8"?>
<!-- Svg Vector Icons : http://www.onlinewebfonts.com/icon -->
<!DOCTYPE svg PUBLIC "-//W3C//DTD SVG 1.1//EN" "http://www.w3.org/Graphics/SVG/1.1/DTD/svg11.dtd">
<svg version="1.1" xmlns="http://www.w3.org/2000/svg" xmlns:xlink="http://www.w3.org/1999/xlink" x="0px" y="0px" viewBox="0 0 1000 1000" enable-background="new 0 0 1000 1000" xml:space="preserve">
<metadata> Svg Vector Icons : http://www.onlinewebfonts.com/icon </metadata>
<g><path d="M710.1,626h-44.8l-16.8-16.8C704.4,547.6,738,463.7,738,374c0-201.6-162.3-364-364-364C172.3,10,10,172.4,10,374c0,201.6,162.4,364,364,364c89.6,0,173.7-33.6,235.2-89.5l16.8,16.8v44.8L906,990l84-84 M374,626c-140.1,0-252-112-252-252c0-140.1,112-252,252-252c140.1,0,252,112,252,252C626,514.1,514.1,626,374,626"/></g>
</svg>